<?xml version="1.0" standalone="no"?>
<!DOCTYPE svg PUBLIC "-//W3C//DTD SVG 20010904//EN"
 "http://www.w3.org/TR/2001/REC-SVG-20010904/DTD/svg10.dtd">
<svg version="1.0" xmlns="http://www.w3.org/2000/svg"
 width="980.000000pt" height="980.000000pt" viewBox="0 0 980.000000 980.000000"
 preserveAspectRatio="xMidYMid meet">
<metadata>
Created by potrace 1.14, written by Peter Selinger 2001-2017
</metadata>
<g transform="translate(0.000000,980.000000) scale(0.100000,-0.100000)"
fill="#000000" stroke="none">
<path d="M4748 7891 c-215 -69 -328 -248 -328 -522 0 -60 -3 -78 -15 -83 -43
-16 -60 -159 -29 -236 12 -29 27 -46 53 -58 34 -16 36 -20 48 -90 16 -98 30
-138 66 -192 27 -41 28 -45 12 -55 -25 -14 -168 -117 -181 -130 -8 -8 0 -23
28 -55 42 -47 154 -185 172 -210 6 -8 -29 23 -79 69 -155 143 -315 244 -470
297 -65 22 -104 28 -205 32 -118 4 -246 -10 -238 -26 20 -38 57 -122 63 -142
4 -16 -5 -8 -28 25 -48 70 -119 132 -185 163 -83 39 -242 43 -383 11 -91 -20
-103 -26 -128 -58 -40 -51 -59 -92 -82 -174 l-19 -72 5 60 c2 33 11 80 20 105
18 54 88 138 136 164 30 16 40 33 82 140 100 254 235 455 330 489 8 3 3 14
-13 32 l-25 29 32 -22 c43 -30 58 -28 135 22 59 38 66 45 52 57 -14 12 -49 69
-41 69 1 0 20 -20 41 -45 l37 -46 -22 -18 -22 -18 45 -21 c61 -30 78 -28 122
17 l38 39 -27 43 c-15 24 -37 54 -48 67 -11 12 -16 22 -10 22 13 0 103 -119
103 -134 0 -6 -16 -28 -35 -48 -28 -30 -43 -38 -70 -38 -41 0 -105 24 -121 45
-10 13 -16 12 -44 -8 -19 -12 -35 -27 -37 -33 -5 -14 172 -123 182 -112 2 2
10 20 18 40 11 25 24 39 41 44 14 3 26 10 26 15 0 5 20 9 44 9 40 0 46 3 70
40 14 22 26 43 26 47 0 5 -12 26 -26 48 l-25 40 39 -45 40 -45 -19 -31 c-27
-44 -24 -54 15 -54 30 0 37 6 61 46 26 45 27 46 8 67 -10 12 -25 31 -33 42
l-15 20 24 -20 c13 -11 32 -33 43 -48 l20 -28 -31 -47 -30 -47 -102 0 -101 0
-29 -33 c-21 -23 -29 -42 -27 -60 3 -30 27 -39 101 -41 42 -1 53 3 78 30 16
17 29 36 29 41 0 7 20 8 53 4 l52 -6 48 73 c26 40 47 77 47 81 0 5 -45 72 -99
151 l-100 142 -83 6 c-243 19 -371 0 -463 -68 -16 -13 -75 -45 -130 -72 -309
-154 -621 -356 -782 -507 -136 -127 -241 -300 -270 -445 -10 -47 -23 -83 -35
-95 -28 -26 -48 -78 -48 -122 0 -77 79 -163 201 -219 56 -25 213 -59 334 -71
l70 -8 -80 -8 c-44 -5 -104 -6 -132 -3 -29 3 -53 1 -53 -3 0 -15 121 -125 190
-174 163 -115 349 -190 519 -210 173 -20 316 25 425 134 56 57 138 189 126
202 -3 3 -23 1 -45 -4 -222 -51 -501 -22 -686 71 -83 41 -105 59 -41 32 146
-61 358 -97 537 -91 141 5 209 28 221 73 16 65 67 -56 149 -357 31 -112 65
-232 76 -267 49 -159 136 -346 207 -446 l35 -49 -30 25 c-150 127 -289 427
-384 830 -11 49 -24 89 -27 89 -4 0 -17 -18 -30 -40 -12 -22 -49 -61 -82 -87
l-60 -48 5 -58 c18 -187 161 -537 311 -762 87 -130 128 -218 158 -337 50 -196
56 -393 20 -635 l-16 -108 34 -28 c78 -66 269 -163 412 -211 156 -52 267 -69
451 -70 229 0 389 32 597 119 79 33 262 137 272 154 3 4 -4 62 -16 127 -15 88
-21 164 -22 289 -1 183 10 267 51 405 31 105 64 170 146 294 145 216 276 531
309 740 11 74 11 79 -7 89 -36 20 -111 96 -131 132 -22 42 -32 44 -40 8 -110
-470 -229 -743 -385 -881 l-38 -33 45 67 c100 153 170 329 255 643 63 232 103
356 130 400 l21 35 13 -31 c23 -53 81 -68 270 -68 192 0 343 28 488 89 61 27
42 9 -30 -27 -81 -41 -174 -72 -263 -88 -88 -16 -329 -13 -410 4 -36 8 -67 13
-70 10 -10 -10 66 -138 113 -189 81 -89 181 -135 323 -149 179 -18 451 76 644
221 82 62 180 153 180 167 0 6 -25 7 -57 4 -32 -3 -92 -2 -133 2 l-75 7 70 7
c272 29 437 96 506 205 45 71 40 141 -16 202 -14 15 -28 50 -35 85 -57 281
-261 508 -685 762 -134 81 -342 195 -385 212 -19 8 -66 34 -103 59 -38 24 -89
51 -115 59 -57 18 -258 27 -366 16 l-79 -8 -98 -140 c-54 -77 -98 -145 -99
-152 0 -6 21 -43 48 -82 l47 -71 52 6 c46 5 52 4 58 -15 11 -37 53 -61 106
-61 102 0 129 44 64 106 l-35 33 -92 -4 -93 -3 -33 48 c-37 54 -36 66 14 110
l28 25 -28 -38 -27 -37 29 -48 c25 -41 32 -47 58 -44 40 5 41 8 17 51 l-21 37
34 40 35 39 -22 -40 -22 -41 28 -42 c25 -39 31 -42 71 -42 24 0 44 -4 44 -9 0
-5 11 -12 24 -15 16 -4 31 -20 43 -46 12 -27 23 -38 33 -34 40 14 170 98 167
107 -2 6 -15 20 -30 31 l-26 20 -54 -27 c-80 -41 -116 -39 -160 9 -20 21 -37
44 -37 50 0 11 98 144 107 144 4 0 4 0 -50 -84 l-39 -58 38 -39 c43 -44 61
-47 124 -18 l45 21 -25 21 -25 22 44 45 c40 42 42 43 27 13 -9 -17 -20 -35
-26 -38 -18 -11 -10 -21 53 -63 71 -47 86 -50 125 -25 l27 17 -19 -22 c-21
-24 -21 -24 13 -42 97 -50 232 -266 326 -521 24 -63 34 -80 62 -95 83 -44 150
-157 158 -265 l5 -64 -18 70 c-20 76 -62 162 -96 194 -31 29 -189 61 -301 61
-178 0 -270 -46 -373 -185 -49 -66 -50 -48 -1 49 16 33 28 61 26 63 -11 10
-124 23 -211 23 -246 0 -494 -124 -733 -366 -35 -35 -63 -62 -63 -60 0 7 116
154 168 214 29 33 53 64 51 69 -1 8 -145 115 -185 139 -18 11 -18 13 -2 31 32
36 68 131 80 212 12 79 13 81 46 92 25 8 39 22 53 53 34 75 18 225 -26 242
-12 5 -15 23 -15 83 -2 274 -110 447 -326 521 -76 26 -225 27 -306 1z"/>
<path d="M7285 5891 c-22 -37 -279 -181 -390 -219 -155 -53 -358 -68 -478 -37
-32 8 -61 15 -66 15 -4 0 -12 -20 -18 -44 -10 -43 -8 -47 39 -128 142 -241
218 -483 237 -753 16 -228 -10 -434 -80 -652 -142 -436 -467 -806 -884 -1004
-795 -378 -1737 -89 -2194 673 -93 156 -162 334 -203 524 -20 96 -23 136 -23
339 0 254 7 307 70 511 32 103 133 326 175 384 17 25 18 29 2 85 -8 33 -17 62
-18 64 -2 1 -31 -4 -66 -13 -81 -20 -253 -21 -345 -2 -144 31 -352 124 -462
207 -28 21 -55 39 -60 39 -11 0 -61 -97 -61 -119 0 -20 260 -279 308 -307 17
-10 32 -21 32 -25 0 -4 -15 -54 -34 -111 -19 -57 -47 -159 -61 -228 -15 -69
-28 -131 -31 -137 -2 -8 -21 -13 -48 -13 -25 0 -118 -20 -208 -44 -187 -51
-200 -56 -210 -70 -4 -6 -8 -106 -8 -223 0 -223 2 -233 48 -247 108 -33 310
-80 361 -85 l64 -6 22 -110 c12 -60 41 -169 64 -242 22 -72 41 -134 41 -137 0
-3 -19 -16 -42 -30 -56 -32 -298 -278 -298 -301 0 -27 201 -375 223 -387 15
-7 38 -5 91 10 39 11 118 33 176 48 58 15 124 38 147 51 l42 24 32 -38 c51
-58 249 -255 293 -291 l40 -32 -23 -41 c-29 -50 -121 -384 -113 -411 6 -26
350 -228 388 -228 23 0 285 261 308 308 19 38 20 38 86 12 66 -26 267 -80 355
-94 l70 -12 6 -65 c3 -35 22 -122 41 -194 20 -71 38 -142 42 -157 13 -57 18
-58 255 -58 236 0 233 0 246 55 4 17 23 86 42 155 19 69 37 156 41 194 l7 69
119 24 c65 13 174 41 241 63 67 22 125 40 128 40 4 0 14 -15 23 -33 26 -51
285 -307 311 -307 21 0 60 21 289 156 97 57 114 80 94 126 -5 13 -26 86 -46
163 -20 77 -47 161 -61 187 l-25 47 38 32 c22 18 104 99 185 180 l145 148 40
-23 c21 -13 95 -38 164 -55 69 -18 147 -39 174 -48 34 -11 54 -12 70 -5 24 11
226 356 226 386 0 25 -241 269 -297 302 -24 14 -43 27 -43 30 0 3 18 63 40
132 22 70 51 179 64 242 l23 115 69 7 c38 3 121 20 184 37 63 18 132 36 152
42 68 18 68 17 68 253 0 239 1 236 -75 254 -22 6 -92 24 -155 42 -63 17 -144
35 -180 38 l-65 7 -12 65 c-17 97 -60 260 -88 338 -14 38 -25 74 -25 81 0 6
17 19 38 30 48 25 302 282 302 306 0 18 -55 121 -70 130 -5 3 -11 1 -15 -4z"/>
<path d="M3475 4390 c14 -89 19 -111 32 -160 22 -80 40 -133 62 -182 11 -24
22 -53 26 -65 3 -13 11 -23 16 -23 5 0 9 -7 9 -17 0 -15 55 -111 71 -123 3 -3
9 -14 13 -26 3 -11 14 -29 24 -40 9 -10 30 -37 47 -59 41 -55 189 -199 255
-249 239 -179 480 -269 790 -296 225 -20 487 28 700 128 85 40 230 121 245
138 6 6 32 28 60 50 138 109 266 257 351 409 66 117 127 256 128 296 1 15 4
25 7 24 7 -5 43 154 37 161 -3 3 -8 -7 -12 -21 -4 -14 -22 -50 -41 -80 -19
-30 -35 -58 -35 -64 0 -5 -3 -11 -7 -13 -5 -1 -24 -25 -43 -53 -52 -75 -57
-81 -165 -189 -55 -56 -129 -123 -165 -150 -36 -27 -64 -53 -62 -58 1 -5 -2
-7 -7 -4 -13 8 -82 -39 -73 -49 4 -5 2 -5 -5 -1 -6 3 -33 -6 -60 -22 -42 -24
-97 -48 -253 -108 -233 -90 -666 -99 -925 -20 -165 50 -381 147 -415 186 -3 3
-36 26 -75 50 -38 25 -124 98 -189 162 -66 64 -124 114 -130 111 -5 -4 -6 -1
-2 6 5 7 1 20 -7 29 -23 26 -132 192 -152 232 -10 19 -21 37 -25 40 -3 3 -11
21 -18 40 -6 19 -10 24 -7 10z m2778 -264 c4 -10 1 -13 -8 -9 -8 3 -12 9 -9
14 7 12 11 11 17 -5z"/>
</g>
</svg>
